<svg width="19" height="19" viewBox="0 0 19 19" fill="none" xmlns="http://www.w3.org/2000/svg">
<g clip-path="url(#clip0_2538_1342)">
<path d="M17.5404 0H0.649643C0.290309 0 0 0.369484 0 0.826818V17.3632C0 17.8205 0.290309 18.19 0.649643 18.19H17.5404C17.8997 18.19 18.19 17.8205 18.19 17.3632V0.826818C18.19 0.369484 17.8997 0 17.5404 0ZM15.9 2.81377L9.49494 9.15701C9.33659 9.31462 9.1153 9.31462 8.95695 9.15701L2.54985 2.81377C2.5257 2.79004 2.50798 2.7573 2.49919 2.72012C2.49039 2.68293 2.49096 2.64318 2.50081 2.60643C2.51066 2.56968 2.52929 2.53778 2.55411 2.51518C2.57892 2.49259 2.60867 2.48045 2.63917 2.48045H15.8107C15.8412 2.48045 15.8709 2.49259 15.8958 2.51518C15.9206 2.53778 15.9392 2.56968 15.9491 2.60643C15.9589 2.64318 15.9595 2.68293 15.9507 2.72012C15.9419 2.7573 15.9242 2.79004 15.9 2.81377Z" fill="#508991"/>
</g>
<defs>
<clipPath id="clip0_2538_1342">
<rect width="18.19" height="18.19" fill="white"/>
</clipPath>
</defs>
</svg>
