<svg width="195" height="18" viewBox="0 0 195 18" fill="none" xmlns="http://www.w3.org/2000/svg">
<path d="M173.633 10.0394C172.785 10.0394 172.127 9.3806 172.127 8.53353C172.127 7.6237 172.848 6.87074 173.758 6.87074H190.668C190.982 6.87074 191.233 7.12173 191.233 7.43546V8.40803C191.233 9.31786 190.48 10.0394 189.57 10.0394H173.633ZM192.77 3.45106H173.695C171.06 3.45106 168.927 5.58444 168.927 8.18842V9.00413C168.927 11.6395 171.06 13.7729 173.695 13.7729H192.77C193.68 13.7729 194.402 14.4944 194.402 15.4043V16.6592C194.402 16.9729 194.182 17.1925 193.868 17.1925H173.946C169.428 17.1925 165.758 13.5219 165.758 9.00413V8.21979C165.758 3.67067 169.428 0 173.946 0H193.868C194.182 0 194.402 0.250987 194.402 0.533346V1.78828C194.402 2.6981 193.68 3.45106 192.77 3.45106Z" fill="#004346"/>
<path d="M150.93 1.63141C150.93 0.721585 151.651 0 152.561 0H153.565C153.847 0 154.098 0.250987 154.098 0.533346V15.5611C154.098 16.471 153.377 17.1925 152.467 17.1925H151.463C151.149 17.1925 150.93 16.9729 150.93 16.6592V1.63141Z" fill="#004346"/>
<path d="M119.247 9.00413C119.247 11.6395 121.38 13.7729 124.016 13.7729H139.89C140.8 13.7729 141.553 14.4944 141.553 15.4043V16.6592C141.553 16.9729 141.302 17.1925 140.988 17.1925H124.267C119.749 17.1925 116.078 13.5219 116.078 9.00413V0.533346C116.078 0.250987 116.298 0 116.611 0H117.615C118.525 0 119.247 0.721585 119.247 1.63141V9.00413Z" fill="#004346"/>
<path d="M103.126 8.18842C104.036 9.12962 104.601 10.6983 104.57 12.1415C104.538 14.965 102.122 17.1925 99.2989 17.1925H76.4591C76.1454 17.1925 75.9258 16.9729 75.9258 16.6592V0.533346C75.9258 0.250987 76.1454 0 76.4591 0H99.0479C101.777 0 104.13 2.10201 104.287 4.83148C104.381 6.21191 103.911 7.21585 103.126 8.18842ZM79.3768 3.45106C79.22 3.45106 79.0945 3.57655 79.0945 3.70205V6.61976C79.0945 6.77662 79.22 6.87074 79.3768 6.87074H99.393C100.366 6.87074 101.15 6.08641 101.119 5.11384C101.087 4.17264 100.271 3.45106 99.3302 3.45106H79.3768ZM99.6126 13.7729C100.554 13.7729 101.369 13.0513 101.401 12.1101C101.432 11.1375 100.648 10.0394 99.6753 10.0394H79.3768C79.22 10.0394 79.0945 10.1649 79.0945 10.3218V13.4905C79.0945 13.6474 79.22 13.7729 79.3768 13.7729H99.6126Z" fill="#004346"/>
<path d="M37.9782 17.1925C37.6331 17.1925 37.4448 16.8161 37.6331 16.5651L48.9588 1.2863C49.5549 0.470598 50.7471 0 51.751 0C52.755 0 53.9785 0.470598 54.5746 1.2863L65.869 16.5651C66.0886 16.8161 65.9004 17.1925 65.5553 17.1925H63.4532C62.763 17.1925 62.1042 16.8788 61.6963 16.3141L51.9706 3.20007C51.8765 3.04321 51.6569 3.04321 51.5314 3.20007L41.8371 16.3141C41.3978 16.8788 40.7704 17.1925 40.0802 17.1925H37.9782Z" fill="#004346"/>
<path d="M20.4554 0C24.9731 0 28.6438 3.67067 28.6438 8.21979V9.00413C28.6438 13.5219 24.9731 17.1925 20.4554 17.1925H0.533347C0.219613 17.1925 0 16.9729 0 16.6592V7.43546C0 7.12173 0.219613 6.87074 0.533347 6.87074H1.53729C2.44711 6.87074 3.1687 7.6237 3.1687 8.53353V13.4905C3.1687 13.6474 3.29419 13.7729 3.45106 13.7729H20.7064C23.3417 13.7729 25.4751 11.6395 25.4751 9.00413V8.18842C25.4751 5.58444 23.3417 3.45106 20.7064 3.45106H1.63141C0.721585 3.45106 0 2.6981 0 1.78828V0.533346C0 0.250987 0.219613 0 0.533347 0H20.4554Z" fill="#004346"/>
</svg>
