<svg width="190" height="8" viewBox="0 0 190 8" fill="none" xmlns="http://www.w3.org/2000/svg">
<path d="M185.157 0.457031L189.578 6.96698V0.457031H189.971V7.31993H189.333L184.912 0.800177V7.31993H184.52V0.457031H185.157Z" fill="#004346"/>
<path d="M163.182 1.40244C163.842 0.722689 164.652 0.382812 165.613 0.382812C166.554 0.382812 167.358 0.722689 168.025 1.40244C168.692 2.0822 169.025 2.91228 169.025 3.8927C169.025 4.86657 168.695 5.69339 168.035 6.37314C167.381 7.0529 166.574 7.39277 165.613 7.39277C164.639 7.39277 163.825 7.0529 163.172 6.37314C162.518 5.69339 162.191 4.86657 162.191 3.8927C162.191 2.91882 162.521 2.08873 163.182 1.40244ZM162.593 3.8927C162.593 4.75546 162.881 5.49077 163.456 6.09863C164.031 6.70648 164.75 7.01041 165.613 7.01041C166.469 7.01041 167.185 6.70975 167.76 6.10843C168.335 5.50058 168.623 4.762 168.623 3.8927C168.623 3.02993 168.332 2.29462 167.75 1.68676C167.175 1.07237 166.463 0.765174 165.613 0.765174C164.757 0.765174 164.038 1.0691 163.456 1.67696C162.881 2.28482 162.593 3.02339 162.593 3.8927Z" fill="#004346"/>
<path d="M146.215 7.31993V0.457031H146.607V7.31993H146.215Z" fill="#004346"/>
<path d="M125.391 0.457031H130.783V0.829589H128.322V7.31993H127.92V0.829589H125.391V0.457031Z" fill="#004346"/>
<path d="M104.898 7.31993L107.781 0.457031H108.349L111.193 7.31993H110.761L109.997 5.47675H106.095L105.32 7.31993H104.898ZM109.85 5.1042L108.065 0.770764L106.232 5.1042H109.85Z" fill="#004346"/>
<path d="M84.7031 7.31993V0.457031H86.762C87.7555 0.457031 88.5856 0.783836 89.2523 1.43745C89.9255 2.08452 90.2621 2.90153 90.2621 3.88848C90.2621 4.87543 89.9287 5.69571 89.2621 6.34932C88.5954 6.9964 87.762 7.31993 86.762 7.31993H84.7031ZM85.1051 6.94737H86.762C87.6574 6.94737 88.396 6.65652 88.9777 6.07481C89.5594 5.49309 89.8503 4.76432 89.8503 3.88848C89.8503 3.00611 89.5562 2.27733 88.9679 1.70216C88.3862 1.12045 87.6509 0.829589 86.762 0.829589H85.1051V6.94737Z" fill="#004346"/>
<path d="M64.1802 0.457031L68.6019 6.96698V0.457031H68.9941V7.31993H68.3568L63.9351 0.800177V7.31993H63.543V0.457031H64.1802Z" fill="#004346"/>
<path d="M42.7652 0.457031V4.52575C42.7652 5.08132 42.8862 5.55519 43.128 5.94735C43.3764 6.33298 43.6738 6.6075 44.0202 6.7709C44.3666 6.92777 44.7359 7.0062 45.128 7.0062C45.5202 7.0062 45.8895 6.92777 46.2359 6.7709C46.5823 6.6075 46.8765 6.33298 47.1183 5.94735C47.3667 5.55519 47.4908 5.08132 47.4908 4.52575V0.457031H47.8928V4.52575C47.8928 5.00942 47.8144 5.4408 47.6575 5.8199C47.5007 6.19899 47.2882 6.49965 47.0202 6.72188C46.7588 6.94411 46.4679 7.11078 46.1477 7.22189C45.8274 7.33954 45.4875 7.39837 45.128 7.39837C44.7686 7.39837 44.4287 7.34281 44.1084 7.23169C43.7881 7.11404 43.494 6.94411 43.226 6.72188C42.9646 6.49965 42.7554 6.19899 42.5986 5.8199C42.4417 5.4408 42.3633 5.00942 42.3633 4.52575V0.457031H42.7652Z" fill="#004346"/>
<path d="M21.1621 1.40244C21.8222 0.722689 22.6327 0.382812 23.5935 0.382812C24.5347 0.382812 25.3387 0.722689 26.0053 1.40244C26.672 2.0822 27.0054 2.91228 27.0054 3.8927C27.0054 4.86657 26.6753 5.69339 26.0151 6.37314C25.3615 7.0529 24.5543 7.39277 23.5935 7.39277C22.6196 7.39277 21.8059 7.0529 21.1523 6.37314C20.4987 5.69339 20.1719 4.86657 20.1719 3.8927C20.1719 2.91882 20.5019 2.08873 21.1621 1.40244ZM20.5738 3.8927C20.5738 4.75546 20.8614 5.49077 21.4366 6.09863C22.0118 6.70648 22.7308 7.01041 23.5935 7.01041C24.4498 7.01041 25.1655 6.70975 25.7406 6.10843C26.3158 5.50058 26.6034 4.762 26.6034 3.8927C26.6034 3.02993 26.3125 2.29462 25.7308 1.68676C25.1556 1.07237 24.4432 0.765174 23.5935 0.765174C22.7373 0.765174 22.0183 1.0691 21.4366 1.67696C20.8614 2.28482 20.5738 3.02339 20.5738 3.8927Z" fill="#004346"/>
<path d="M5.08275 0.457031V0.829589H0.817947V3.7022H4.69058V4.07476H0.817947V7.31993H0.425781V0.457031H5.08275Z" fill="#004346"/>
</svg>
