<svg width="150" height="150" viewBox="0 0 150 150" fill="none" xmlns="http://www.w3.org/2000/svg">
<circle cx="75" cy="75" r="74.5" fill="white" stroke="black"/>
<path fill-rule="evenodd" clip-rule="evenodd" d="M45.64 74.8825L72.6461 88.2052C74.481 89.143 76.5269 89.143 78.3619 88.2052L105.348 74.9066V98.0105C105.371 99.7621 104.7 101.41 103.56 102.397C97.5629 107.706 87.2282 111.289 75.4843 111.289C63.7404 111.289 53.4057 107.771 47.4088 102.397C46.2688 101.409 45.5933 99.7621 45.6206 98.0105V74.8825H45.64ZM37.6442 91.1777V68.3126L73.3137 85.8831C74.7192 86.6076 76.2888 86.6076 77.6943 85.8831L119.673 65.2016C120.473 64.7948 121 63.8073 121 62.7107C121 61.6141 120.473 60.6267 119.673 60.2198L77.6943 39.5384V39.5433C76.2888 38.8189 74.7192 38.8189 73.3137 39.5433L31.3274 60.2604C30.5231 60.6673 30 61.6548 30 62.7513C30 63.8479 30.5232 64.8353 31.3274 65.2422L35.7041 67.4006V91.1791C34.3922 91.7546 33.5177 93.3276 33.5255 95.0941V109.345C33.5138 110.774 34.4 111.95 35.5244 112H37.7538C38.8782 111.95 39.7645 110.774 39.7528 109.345V95.0941C39.7684 93.3326 38.9016 91.7596 37.5937 91.1791L37.6442 91.1777Z" fill="black"/>
</svg>
