<svg width="150" height="150" viewBox="0 0 150 150" fill="none" xmlns="http://www.w3.org/2000/svg">
<circle cx="75" cy="75" r="74.5" fill="white" stroke="black"/>
<path d="M98.1732 103.818L100.982 103.773C100.989 103.773 100.995 103.773 101.002 103.773C101.652 103.773 102.183 104.294 102.193 104.946C102.204 105.604 101.678 106.146 101.02 106.157L94.4164 106.263C94.41 106.263 94.4035 106.263 94.3971 106.263C94.0375 106.263 93.6972 106.101 93.4704 105.821C93.2395 105.536 93.1534 105.161 93.2355 104.803L94.7149 98.3684C94.8629 97.7265 95.5032 97.3267 96.1444 97.4739C96.7864 97.6211 97.187 98.2615 97.039 98.9026L96.2602 102.289C101.227 98.432 105.026 93.3164 107.296 87.4012C114.134 69.5921 105.211 49.5393 87.4039 42.7005C80.4904 40.045 73.0741 39.6661 65.9562 41.6049C65.3207 41.7778 64.6658 41.4029 64.4921 40.7674C64.3191 40.1319 64.694 39.4771 65.3287 39.3041C72.9397 37.231 80.8677 37.6356 88.2583 40.4746C97.4806 44.0166 104.77 50.9366 108.786 59.9611C112.802 68.9855 113.063 79.034 109.522 88.2572C107.164 94.4008 103.263 99.7368 98.1732 103.818ZM84.0477 108.39C76.9218 110.325 69.5031 109.946 62.5951 107.294C44.7876 100.454 35.8645 80.4024 42.704 62.5933C44.9799 56.6708 48.7761 51.5568 53.7404 47.7003L52.9609 51.0919C52.8137 51.7338 53.2143 52.3734 53.8555 52.5206C53.9456 52.5415 54.0349 52.5512 54.1242 52.5512C54.6672 52.5512 55.1579 52.1779 55.285 51.626L56.7644 45.1911C56.8465 44.834 56.7596 44.4591 56.5295 44.1743C56.2986 43.8895 55.9519 43.7319 55.5835 43.7319L48.9837 43.838C48.3256 43.8485 47.8003 44.3907 47.8108 45.0496C47.8212 45.7076 48.3594 46.2265 49.0223 46.2225L51.8242 46.1774C46.7384 50.2568 42.8416 55.5896 40.4789 61.7381C36.9369 70.9596 37.1983 81.0082 41.2142 90.0326C45.23 99.0579 52.5201 105.979 61.7408 109.52C66.0254 111.165 70.4933 111.992 74.9782 111.992C78.2226 111.992 81.475 111.559 84.6728 110.69C85.3083 110.517 85.6832 109.863 85.511 109.227C85.3389 108.592 84.684 108.217 84.0477 108.39ZM77.7271 90.895C77.0682 90.895 76.5349 90.3608 76.5349 89.7028V64.4234C76.5349 63.7645 77.0682 63.2312 77.7271 63.2312H84.0904C84.7492 63.2312 85.2826 63.7654 85.2826 64.4234V89.702C85.2826 90.3608 84.7492 90.8942 84.0904 90.8942L77.7271 90.895ZM78.9193 88.5098H82.8973V65.6156H78.9193V88.5098ZM65.9144 90.895C65.2563 90.895 64.7221 90.3608 64.7221 89.7028V71.0996C64.7221 70.4408 65.2563 69.9074 65.9144 69.9074H72.2776C72.9365 69.9074 73.4699 70.4416 73.4699 71.0996V89.7028C73.4699 90.3616 72.9365 90.895 72.2776 90.895H65.9144ZM67.1066 88.5098H71.0854V72.2918H67.1066V88.5098ZM97.0953 58.4157V89.7028C97.0953 90.3616 96.5619 90.895 95.9031 90.895H89.5398C88.8809 90.895 88.3476 90.3608 88.3476 89.7028V58.4157C88.3476 57.7568 88.8809 57.2235 89.5398 57.2235H95.9031C96.5611 57.2235 97.0953 57.7568 97.0953 58.4157ZM94.7108 59.6079H90.732V88.5098H94.7108V59.6079ZM54.0968 90.895C53.4388 90.895 52.9046 90.3608 52.9046 89.7028V77.4967C52.9046 76.8378 53.4388 76.3045 54.0968 76.3045H60.4601C61.119 76.3045 61.6523 76.8387 61.6523 77.4967V89.7028C61.6523 90.3616 61.119 90.895 60.4601 90.895H54.0968ZM55.289 88.5098H59.2679V78.6889H55.289V88.5098ZM52.4316 94.0654C52.4316 94.7628 53.0028 95.334 53.7002 95.334H96.3013C96.9987 95.334 97.5699 94.7637 97.5699 94.0654C97.5699 93.3679 96.9987 92.7967 96.3013 92.7967H53.6994C53.0019 92.7975 52.4316 93.3679 52.4316 94.0654ZM53.1274 71.0691C53.2988 71.5614 53.7597 71.8695 54.2537 71.8695C54.384 71.8695 54.5159 71.8478 54.6463 71.8027C68.384 67.0178 80.5073 60.0922 90.7263 51.1973L90.5421 52.4635C90.4472 53.1151 90.8985 53.72 91.5501 53.815C91.608 53.8238 91.666 53.8278 91.7231 53.8278C92.3055 53.8278 92.8147 53.4007 92.9016 52.807L93.5613 48.2787C93.6128 47.9247 93.5025 47.5667 93.262 47.3029C93.0207 47.039 92.6748 46.8942 92.3168 46.9167L87.7506 47.1661C87.0934 47.2023 86.589 47.7638 86.6252 48.4219C86.6614 49.0791 87.2205 49.5875 87.881 49.5473L89.0635 49.4829C79.0938 58.1365 67.2667 64.8819 53.8611 69.551C53.2393 69.7674 52.911 70.4472 53.1274 71.0691Z" fill="black"/>
</svg>
