<svg width="150" height="150" viewBox="0 0 150 150" fill="none" xmlns="http://www.w3.org/2000/svg">
<circle cx="75" cy="75" r="74.5" fill="white" stroke="black"/>
<path d="M78.677 72.9263C73.0372 72.947 67.3977 72.9677 61.7576 72.9884L53.1615 77.8453C52.889 77.9971 52.5924 78.0729 52.2992 78.0729L47.67 78.0798V98.7558H52.2992C52.682 98.7558 53.0339 98.8765 53.3237 99.0835L61.799 104.382H80.0157C82.2648 104.382 84.3034 103.495 85.7728 102.064C87.2284 100.646 88.1357 98.6903 88.1357 96.5344V86.8622C88.1357 84.7098 87.2285 82.7505 85.7728 81.3327C84.3033 79.9012 82.2647 79.0147 80.0157 79.0147H65.0655V75.4825H80.0157C83.2099 75.4825 86.1178 76.7553 88.2289 78.8077C90.3502 80.8705 91.6679 83.7197 91.6679 86.8622V96.5344C91.6679 99.6734 90.3502 102.523 88.2289 104.589C86.1178 106.638 83.2133 107.914 80.0157 107.914H74.1965V115.234C74.1965 116.21 73.4066 117 72.4304 117H66.4525C65.4763 117 64.6864 116.21 64.6864 115.234V107.914H61.299C60.9817 107.911 60.6574 107.824 60.3677 107.645L51.8027 102.288H47.6737V104.254C47.6737 105.23 46.8838 106.02 45.9076 106.02H36.7661C35.7899 106.02 35 105.23 35 104.254V72.5886C35 71.6124 35.7899 70.8225 36.7661 70.8225H45.9076C46.8838 70.8225 47.6737 71.6124 47.6737 72.5886V74.5514H51.8579L60.3815 69.7394C60.6505 69.5738 60.9644 69.4773 61.3025 69.4773L64.6898 69.4635V37.5426C64.6898 36.5733 65.0865 35.6902 65.7281 35.0452L65.7385 35.0349C66.3801 34.3967 67.2632 34 68.2324 34H70.6574C71.6267 34 72.5098 34.3967 73.1548 35.0383L73.1651 35.0487C73.8033 35.6902 74.2 36.5733 74.2 37.5426V39.6882C81.944 35.7661 87.7391 38.4705 93.5346 41.1783C99.0744 43.7654 104.618 46.3525 112.093 41.3577C112.421 41.1162 112.831 40.9817 113.269 41.0128C114.242 41.0817 114.97 41.9234 114.904 42.8961C114.694 45.8524 113.718 48.6498 112.131 51.0438C110.81 53.0376 109.064 54.7554 106.995 56.0524C107.474 57.3356 108.216 58.4912 109.151 59.4571C110.385 60.7368 111.962 61.6819 113.7 62.1614C114.114 62.2615 114.494 62.5098 114.749 62.8893C115.294 63.6964 115.08 64.7933 114.273 65.3383C105.021 71.5956 98.5122 68.5843 92.0173 65.5798C86.6534 63.0996 81.296 60.6229 74.2006 64.9796V69.4294L78.6849 69.4122V72.9306L78.677 72.9263ZM44.1379 74.351H38.529V102.484H44.1379V74.351ZM74.1964 43.7265V60.932C81.9163 57.0203 87.6975 59.6937 93.4895 62.3739C98.3325 64.6126 103.183 66.8581 109.34 64.0779C108.339 63.4708 107.418 62.7361 106.608 61.8944C104.952 60.18 103.734 58.0172 103.186 55.5888C103.006 54.7851 103.403 53.9882 104.107 53.633C106.197 52.5637 107.936 50.9872 109.188 49.097C109.781 48.2001 110.267 47.2308 110.633 46.2098C103.262 49.5971 97.6494 46.979 92.0437 44.3608C86.6833 41.8566 81.319 39.3557 74.1997 43.7261L74.1964 43.7265ZM68.2185 69.4491L70.6641 69.4422L70.6607 37.5311L68.215 37.538L68.2185 69.4527V69.4491ZM68.2185 107.911V113.464H70.6641V107.911H68.2185Z" fill="black"/>
</svg>
