<svg width="55" height="63" viewBox="0 0 55 63" fill="none" xmlns="http://www.w3.org/2000/svg">
<path d="M50.8573 31.4425C48.9829 36.1281 37.6545 34.7872 25.5546 28.4474C13.4547 22.1077 5.1653 13.1698 7.03969 8.48414C8.91409 3.79848 20.2425 5.13939 32.3424 11.4792C44.4423 17.8189 52.7317 26.7568 50.8573 31.4425Z" fill="#508991"/>
<path d="M50.8587 28.344C52.8951 32.9403 44.4776 42.5089 32.0577 49.716C19.6379 56.9232 7.91882 59.0397 5.88246 54.4434C3.8461 49.8471 12.2636 40.2785 24.6834 33.0714C37.1033 25.8642 48.8224 23.7477 50.8587 28.344Z" fill="#004346"/>
<path d="M9.86735 6.37979C15.1308 6.41353 19.3222 17.7251 19.2292 31.6448C19.1361 45.5645 14.7938 56.8214 9.53033 56.7876C4.26687 56.7539 0.0754453 45.4424 0.168512 31.5226C0.261578 17.6029 4.6039 6.34606 9.86735 6.37979Z" fill="#172A3A"/>
</svg>
