<svg width="45" height="45" viewBox="0 0 45 45" fill="none" xmlns="http://www.w3.org/2000/svg">
<circle cx="22.5" cy="22.5" r="22" fill="white" stroke="black"/>
<path fill-rule="evenodd" clip-rule="evenodd" d="M27.7676 13.1224C28.025 13.014 28.3068 12.9767 28.5835 13.0141C28.8603 13.0516 29.1219 13.1626 29.3412 13.3356C29.5605 13.5085 29.7295 13.7371 29.8305 13.9974C29.9315 14.2578 29.9608 14.5405 29.9155 14.8161L27.553 29.1463C27.3238 30.5286 25.8072 31.3213 24.5395 30.6328C23.479 30.0567 21.904 29.1692 20.4874 28.2432C19.779 27.7797 17.6093 26.2953 17.8759 25.239C18.1051 24.3359 21.7509 20.9422 23.8343 18.9244C24.652 18.1317 24.279 17.6744 23.3134 18.4036C20.9155 20.214 17.0655 22.9672 15.7926 23.7422C14.6697 24.4255 14.0843 24.5422 13.3843 24.4255C12.1072 24.213 10.9228 23.8838 9.95613 23.4828C8.64988 22.9411 8.71342 21.1453 9.95509 20.6224L27.7676 13.1224Z" fill="black"/>
</svg>
