<svg width="37" height="38" viewBox="0 0 37 38" fill="none" xmlns="http://www.w3.org/2000/svg">
<path d="M12.0636 3.59766H24.8565C29.7299 3.59766 33.6896 7.55735 33.6896 12.4308V25.2236C33.6896 27.5663 32.759 29.8131 31.1024 31.4696C29.4459 33.1262 27.1992 34.0568 24.8565 34.0568H12.0636C7.19016 34.0568 3.23047 30.0971 3.23047 25.2236V12.4308C3.23047 10.0881 4.1611 7.84136 5.81764 6.18483C7.47418 4.52829 9.72092 3.59766 12.0636 3.59766ZM11.759 6.64357C10.3049 6.64357 8.91041 7.2212 7.88221 8.2494C6.85402 9.2776 6.27638 10.6721 6.27638 12.1262V25.5282C6.27638 28.5589 8.72834 31.0109 11.759 31.0109H25.1611C26.6151 31.0109 28.0097 30.4333 29.0379 29.4051C30.0661 28.3769 30.6437 26.9823 30.6437 25.5282V12.1262C30.6437 9.09553 28.1917 6.64357 25.1611 6.64357H11.759ZM26.4556 8.92801C26.9605 8.92801 27.4447 9.12857 27.8017 9.48559C28.1587 9.8426 28.3593 10.3268 28.3593 10.8317C28.3593 11.3366 28.1587 11.8208 27.8017 12.1778C27.4447 12.5348 26.9605 12.7354 26.4556 12.7354C25.9507 12.7354 25.4665 12.5348 25.1094 12.1778C24.7524 11.8208 24.5519 11.3366 24.5519 10.8317C24.5519 10.3268 24.7524 9.8426 25.1094 9.48559C25.4665 9.12857 25.9507 8.92801 26.4556 8.92801ZM18.46 11.2124C20.4796 11.2124 22.4165 12.0147 23.8445 13.4428C25.2726 14.8708 26.0748 16.8077 26.0748 18.8272C26.0748 20.8468 25.2726 22.7836 23.8445 24.2117C22.4165 25.6397 20.4796 26.442 18.46 26.442C16.4405 26.442 14.5036 25.6397 13.0756 24.2117C11.6475 22.7836 10.8453 20.8468 10.8453 18.8272C10.8453 16.8077 11.6475 14.8708 13.0756 13.4428C14.5036 12.0147 16.4405 11.2124 18.46 11.2124ZM18.46 14.2584C17.2483 14.2584 16.0862 14.7397 15.2294 15.5965C14.3725 16.4534 13.8912 17.6155 13.8912 18.8272C13.8912 20.039 14.3725 21.2011 15.2294 22.0579C16.0862 22.9147 17.2483 23.3961 18.46 23.3961C19.6718 23.3961 20.8339 22.9147 21.6907 22.0579C22.5476 21.2011 23.0289 20.039 23.0289 18.8272C23.0289 17.6155 22.5476 16.4534 21.6907 15.5965C20.8339 14.7397 19.6718 14.2584 18.46 14.2584Z" fill="black"/>
</svg>
