<svg width="37" height="38" viewBox="0 0 37 38" fill="none" xmlns="http://www.w3.org/2000/svg">
<path d="M10.8379 8.16853C10.8375 8.97636 10.5162 9.75094 9.94472 10.3219C9.37321 10.8928 8.59831 11.2133 7.79049 11.2129C6.98266 11.2125 6.20808 10.8912 5.63714 10.3197C5.06621 9.74821 4.74569 8.97331 4.74609 8.16549C4.7465 7.35766 5.06779 6.58308 5.6393 6.01214C6.2108 5.44121 6.9857 5.12069 7.79353 5.12109C8.60136 5.1215 9.37594 5.44279 9.94687 6.0143C10.5178 6.5858 10.8383 7.3607 10.8379 8.16853ZM10.9293 13.4684H4.83747V32.5358H10.9293V13.4684ZM20.5544 13.4684H14.493V32.5358H20.4935V22.53C20.4935 16.956 27.758 16.4382 27.758 22.53V32.5358H33.7737V20.4588C33.7737 11.0622 23.0216 11.4124 20.4935 16.027L20.5544 13.4684Z" fill="black"/>
</svg>
