<svg width="19" height="19" viewBox="0 0 19 19" fill="none" xmlns="http://www.w3.org/2000/svg">
<g clip-path="url(#clip0_2538_1329)">
<path d="M5.2751 0H12.9149C15.8253 0 18.19 2.3647 18.19 5.2751V12.9149C18.19 14.3139 17.6342 15.6557 16.645 16.645C15.6557 17.6342 14.3139 18.19 12.9149 18.19H5.2751C2.3647 18.19 0 15.8253 0 12.9149V5.2751C0 3.87606 0.555768 2.53431 1.54504 1.54504C2.53431 0.555768 3.87606 0 5.2751 0ZM5.0932 1.819C4.22483 1.819 3.39202 2.16396 2.77799 2.77799C2.16396 3.39202 1.819 4.22483 1.819 5.0932V13.0968C1.819 14.9067 3.28329 16.371 5.0932 16.371H13.0968C13.9652 16.371 14.798 16.026 15.412 15.412C16.026 14.798 16.371 13.9652 16.371 13.0968V5.0932C16.371 3.28329 14.9067 1.819 13.0968 1.819H5.0932ZM13.8699 3.18325C14.1714 3.18325 14.4606 3.30303 14.6738 3.51623C14.887 3.72944 15.0068 4.01861 15.0068 4.32013C15.0068 4.62164 14.887 4.91081 14.6738 5.12402C14.4606 5.33722 14.1714 5.457 13.8699 5.457C13.5684 5.457 13.2792 5.33722 13.066 5.12402C12.8528 4.91081 12.733 4.62164 12.733 4.32013C12.733 4.01861 12.8528 3.72944 13.066 3.51623C13.2792 3.30303 13.5684 3.18325 13.8699 3.18325ZM9.095 4.5475C10.3011 4.5475 11.4577 5.02661 12.3106 5.87943C13.1634 6.73225 13.6425 7.88893 13.6425 9.095C13.6425 10.3011 13.1634 11.4577 12.3106 12.3106C11.4577 13.1634 10.3011 13.6425 9.095 13.6425C7.88893 13.6425 6.73225 13.1634 5.87943 12.3106C5.02661 11.4577 4.5475 10.3011 4.5475 9.095C4.5475 7.88893 5.02661 6.73225 5.87943 5.87943C6.73225 5.02661 7.88893 4.5475 9.095 4.5475ZM9.095 6.3665C8.37136 6.3665 7.67735 6.65397 7.16566 7.16566C6.65397 7.67735 6.3665 8.37136 6.3665 9.095C6.3665 9.81864 6.65397 10.5126 7.16566 11.0243C7.67735 11.536 8.37136 11.8235 9.095 11.8235C9.81864 11.8235 10.5126 11.536 11.0243 11.0243C11.536 10.5126 11.8235 9.81864 11.8235 9.095C11.8235 8.37136 11.536 7.67735 11.0243 7.16566C10.5126 6.65397 9.81864 6.3665 9.095 6.3665Z" fill="#508991"/>
</g>
<defs>
<clipPath id="clip0_2538_1329">
<rect width="18.19" height="18.19" fill="white"/>
</clipPath>
</defs>
</svg>
