<svg width="19" height="19" viewBox="0 0 19 19" fill="none" xmlns="http://www.w3.org/2000/svg">
<g clip-path="url(#clip0_2538_1337)">
<path d="M16.1115 0.355469C16.6338 0.355469 17.1348 0.562969 17.5041 0.932322C17.8735 1.30168 18.081 1.80263 18.081 2.32497V16.1115C18.081 16.6338 17.8735 17.1348 17.5041 17.5041C17.1348 17.8735 16.6338 18.081 16.1115 18.081H2.32497C1.80263 18.081 1.30168 17.8735 0.932322 17.5041C0.562969 17.1348 0.355469 16.6338 0.355469 16.1115V2.32497C0.355469 1.80263 0.562969 1.30168 0.932322 0.932322C1.30168 0.562969 1.80263 0.355469 2.32497 0.355469H16.1115ZM15.6191 15.6191V10.3999C15.6191 9.5485 15.2809 8.73195 14.6788 8.12991C14.0768 7.52786 13.2602 7.18964 12.4088 7.18964C11.5718 7.18964 10.5969 7.70171 10.1242 8.46981V7.37674H7.37674V15.6191H10.1242V10.7643C10.1242 10.006 10.7347 9.38563 11.493 9.38563C11.8586 9.38563 12.2093 9.53088 12.4678 9.78943C12.7264 10.048 12.8716 10.3986 12.8716 10.7643V15.6191H15.6191ZM4.1763 5.83068C4.61507 5.83068 5.03587 5.65638 5.34612 5.34612C5.65638 5.03587 5.83068 4.61507 5.83068 4.1763C5.83068 3.26048 5.09212 2.51207 4.1763 2.51207C3.73492 2.51207 3.31162 2.68741 2.99951 2.99951C2.68741 3.31162 2.51207 3.73492 2.51207 4.1763C2.51207 5.09212 3.26048 5.83068 4.1763 5.83068ZM5.5451 15.6191V7.37674H2.81734V15.6191H5.5451Z" fill="#508991"/>
</g>
<defs>
<clipPath id="clip0_2538_1337">
<rect width="18.19" height="18.19" fill="white"/>
</clipPath>
</defs>
</svg>
