<svg width="18" height="18" viewBox="0 0 18 18" fill="none" xmlns="http://www.w3.org/2000/svg">
<g clip-path="url(#clip0_2538_1297)">
<path fill-rule="evenodd" clip-rule="evenodd" d="M11.5434 9.84766L10.4982 11.3232C10.1005 11.8846 9.56144 12.2 8.99894 12.2C8.43644 12.2 7.89738 11.8846 7.49894 11.3232L6.45378 9.84766L0.816406 17.8063C0.986328 17.9211 1.17309 17.9821 1.36499 17.9821H16.6331C16.825 17.9821 17.0118 17.9211 17.1817 17.8063L11.5434 9.84766Z" fill="#508991"/>
<path fill-rule="evenodd" clip-rule="evenodd" d="M17.7819 1.04297C17.8632 1.28182 17.9064 1.54652 17.9064 1.81641V16.186C17.9064 16.4569 17.8632 16.7205 17.7819 16.9604L12.1445 9.0018L17.7819 1.04297Z" fill="#508991"/>
<path fill-rule="evenodd" clip-rule="evenodd" d="M0.218261 1.04315L5.85564 9.0018L0.218261 16.9604C0.136963 16.7206 0.09375 16.4569 0.09375 16.186V1.81641C0.09375 1.54655 0.136963 1.28202 0.218261 1.04315Z" fill="#508991"/>
<path fill-rule="evenodd" clip-rule="evenodd" d="M17.1817 0.195312C17.0118 0.0805377 16.825 0.0195312 16.6331 0.0195312H1.36499C1.17311 0.0195312 0.986338 0.0805377 0.816406 0.195312L8.09891 10.4765C8.33767 10.8136 8.66141 11.0028 8.99906 11.0028C9.33671 11.0028 9.66043 10.8136 9.89848 10.4765L17.1817 0.195312Z" fill="#508991"/>
</g>
<defs>
<clipPath id="clip0_2538_1297">
<rect width="18" height="18" fill="white"/>
</clipPath>
</defs>
</svg>
