<svg width="19" height="19" viewBox="0 0 19 19" fill="none" xmlns="http://www.w3.org/2000/svg">
<g clip-path="url(#clip0_2538_1293)">
<path d="M7.31259 17.2047C7.25486 16.956 7.20675 16.7015 7.16901 16.4442C7.09721 15.9583 7.05946 15.459 7.05946 14.9521C7.05946 12.7839 7.73744 10.8195 8.83288 9.3982C9.92831 7.97692 11.442 7.09756 13.114 7.09756C14.0843 7.09756 15.0043 7.39617 15.8199 7.92717C16.3573 8.27573 16.8487 8.72606 17.2795 9.25706V6.11904H10.6788C10.5818 6.11904 10.4849 6.07103 10.4109 5.97501L8.85506 3.95668H0.914748V16.2443C0.914748 16.5074 0.999125 16.7465 1.13532 16.9202C1.27299 17.095 1.46395 17.2045 1.6749 17.2045H7.31342L7.31259 17.2047ZM16.1634 3.95499C15.9546 3.95499 15.7859 3.73607 15.7859 3.46529C15.7859 3.1945 15.9546 2.97558 16.1634 2.97558H17.2788V1.94913C17.2788 1.68604 17.1936 1.44598 17.0582 1.27315C16.9205 1.09839 16.7296 0.98894 16.5186 0.98894H1.67405C1.46311 0.98894 1.27141 1.09744 1.13447 1.27315C0.999027 1.44598 0.913902 1.68604 0.913902 1.94913V2.97367H15.0581C15.2676 2.97367 15.4371 3.19355 15.4371 3.46529C15.4371 3.73703 15.2676 3.95691 15.0581 3.95691H9.92591L10.8348 5.13604H17.2786V3.95499H16.1634ZM2.30182 15.2335C2.09235 15.2335 1.92286 15.0136 1.92286 14.7419C1.92286 14.4702 2.09235 14.2503 2.30182 14.2503H6.29945C6.50892 14.2503 6.67841 14.4702 6.67841 14.7419C6.67841 15.0137 6.50891 15.2335 6.29945 15.2335H2.30182ZM2.30182 13.9536C2.09235 13.9536 1.92286 13.7337 1.92286 13.462C1.92286 13.1902 2.09235 12.9704 2.30182 12.9704H6.29945C6.50892 12.9704 6.67841 13.1902 6.67841 13.462C6.67841 13.7337 6.50891 13.9536 6.29945 13.9536H2.30182ZM2.30182 12.6737C2.09235 12.6737 1.92286 12.4538 1.92286 12.182C1.92286 11.9103 2.09235 11.6904 2.30182 11.6904H6.29945C6.50892 11.6904 6.67841 11.9103 6.67841 12.182C6.67841 12.4538 6.50891 12.6737 6.29945 12.6737H2.30182ZM2.30182 11.3937C2.09235 11.3937 1.92286 11.1738 1.92286 10.9021C1.92286 10.6304 2.09235 10.4105 2.30182 10.4105H6.29945C6.50892 10.4105 6.67841 10.6304 6.67841 10.9021C6.67841 11.1738 6.50891 11.3937 6.29945 11.3937H2.30182ZM2.30182 10.1138C2.09235 10.1138 1.92286 9.8939 1.92286 9.62216C1.92286 9.35042 2.09235 9.13054 2.30182 9.13054H4.69551C4.90498 9.13054 5.07447 9.35042 5.07447 9.62216C5.07447 9.8939 4.90497 10.1138 4.69551 10.1138H2.30182ZM3.05973 5.1371H7.14472C7.45631 5.1371 7.74053 5.30321 7.94631 5.57014C8.15356 5.83901 8.28159 6.20772 8.28159 6.61196V6.80784C8.28159 7.21208 8.15354 7.58079 7.94779 7.84775C7.74053 8.11661 7.45631 8.28271 7.14472 8.28271H3.05973C2.74814 8.28271 2.46392 8.11659 2.25814 7.84966C2.05089 7.58079 1.92286 7.21208 1.92286 6.80784V6.61196C1.92286 6.20772 2.05091 5.83901 2.25666 5.57206C2.46392 5.30319 2.74814 5.1371 3.05973 5.1371ZM7.14472 6.12034H3.05973C2.95537 6.12034 2.85989 6.17603 2.79179 6.26437C2.7237 6.35367 2.68077 6.47657 2.68077 6.61197V6.80785C2.68077 6.94324 2.7237 7.06711 2.79179 7.15545C2.86063 7.24379 2.95537 7.29948 3.05973 7.29948H7.14472C7.24908 7.29948 7.34456 7.24379 7.41266 7.15545C7.48075 7.06616 7.52368 6.94325 7.52368 6.80785V6.61197C7.52368 6.47658 7.48075 6.35271 7.41266 6.26437C7.34382 6.17603 7.24908 6.12034 7.14472 6.12034ZM12.2955 2.53396C12.0861 2.53396 11.9166 2.31407 11.9166 2.04234C11.9166 1.7706 12.0861 1.55072 12.2955 1.55072H15.2192C15.4287 1.55072 15.5981 1.7706 15.5981 2.04234C15.5981 2.31407 15.4286 2.53396 15.2192 2.53396H12.2955ZM6.1634 2.53492C5.95393 2.53492 5.78444 2.31503 5.78444 2.0433C5.78444 1.77155 5.95394 1.55168 6.1634 1.55168H6.17155C6.38101 1.55168 6.5505 1.77156 6.5505 2.0433C6.5505 2.31504 6.38101 2.53492 6.17155 2.53492H6.1634ZM4.56911 2.53492C4.35964 2.53492 4.19015 2.31503 4.19015 2.0433C4.19015 1.77155 4.35964 1.55168 4.56911 1.55168H4.57725C4.78672 1.55168 4.95621 1.77156 4.95621 2.0433C4.95621 2.31504 4.78671 2.53492 4.57725 2.53492H4.56911ZM2.97481 2.53492C2.76534 2.53492 2.59585 2.31503 2.59585 2.0433C2.59585 1.77155 2.76535 1.55168 2.97481 1.55168H2.98295C3.19242 1.55168 3.36191 1.77156 3.36191 2.0433C3.36191 2.31504 3.19241 2.53492 2.98295 2.53492H2.97481ZM17.279 10.7071C16.7979 9.91305 16.1836 9.25917 15.4819 8.80403C15.1806 8.60815 14.8624 8.44876 14.5308 8.33065C15.0881 8.9346 15.5633 9.65092 15.9386 10.445C16.5048 11.6424 16.846 13.0184 16.9096 14.4625H17.2797V10.7083L17.279 10.7071ZM17.279 15.4439H16.9089C16.8941 15.7752 16.8652 16.1036 16.8216 16.4281C16.7875 16.6806 16.7453 16.9313 16.6935 17.18C16.8341 17.1377 16.96 17.0465 17.0584 16.9217C17.1946 16.7479 17.279 16.5088 17.279 16.2457L17.279 15.4439ZM15.9023 17.2049C15.9741 16.9005 16.0326 16.5856 16.0755 16.263C16.111 15.9941 16.1362 15.7205 16.1502 15.4439H13.4924V17.205L15.9023 17.2049ZM12.7344 17.2049V15.4439H10.0766C10.0899 15.7205 10.1151 15.9941 10.1513 16.263C10.1942 16.5856 10.2527 16.9005 10.3245 17.2049L12.7344 17.2049ZM9.53769 17.2049C9.48365 16.9476 9.43925 16.6883 9.40446 16.4281C9.36079 16.1036 9.33193 15.7752 9.31712 15.4439H7.83015C7.84495 15.7224 7.87233 15.9951 7.9123 16.261C7.96041 16.5846 8.02629 16.9005 8.10769 17.2059H9.53841L9.53769 17.2049ZM1.6743 18.1882C1.25834 18.1882 0.879378 17.9702 0.604785 17.6207C0.328714 17.2683 0.15625 16.7815 0.15625 16.2457V1.95031C0.15625 1.41451 0.327965 0.927686 0.604046 0.575291C0.878639 0.224814 1.25834 0.0078125 1.67356 0.0078125H16.5181C16.9341 0.0078125 17.313 0.225778 17.5876 0.575291C17.8637 0.927686 18.0362 1.41451 18.0362 1.95031V16.2457C18.0362 16.7815 17.8645 17.2683 17.5876 17.6207C17.313 17.9712 16.9341 18.1882 16.5181 18.1882H1.67356H1.6743ZM13.4915 8.55165V14.4607H16.1494C16.0872 13.2 15.7867 11.9996 15.2923 10.954C14.8423 10.0024 14.2302 9.17769 13.4915 8.55165ZM12.7336 8.55165C11.9942 9.17771 11.3821 10.0025 10.9328 10.9541C10.4384 11.9997 10.1387 13.2 10.0758 14.4608H12.7336L12.7336 8.55165ZM9.31637 14.4607C9.38003 13.0175 9.72124 11.6405 10.2875 10.4432C10.662 9.65004 11.1364 8.9347 11.693 8.3317C10.8011 8.65241 10.004 9.26886 9.36753 10.0937C8.49267 11.2286 7.92276 12.7592 7.82949 14.4608L9.31637 14.4607Z" fill="#508991"/>
</g>
<defs>
<clipPath id="clip0_2538_1293">
<rect width="18.19" height="18.19" fill="white"/>
</clipPath>
</defs>
</svg>
