<svg width="19" height="19" viewBox="0 0 19 19" fill="none" xmlns="http://www.w3.org/2000/svg">
<g clip-path="url(#clip0_2538_1304)">
<path fill-rule="evenodd" clip-rule="evenodd" d="M8.12109 1.6151H17.7264C17.8338 1.6151 17.9364 1.66465 18.0115 1.75159C18.0874 1.83948 18.1294 1.95821 18.1294 2.08162V16.1008C18.1294 16.2252 18.0866 16.3439 18.0115 16.4309C17.9356 16.5188 17.833 16.5674 17.7264 16.5674H8.12109V1.61328V1.6151ZM10.7849 13.1933H10.3004C10.193 13.1933 10.0905 13.2428 10.0154 13.3298C9.9395 13.4177 9.89751 13.5364 9.89751 13.6598V14.2208C9.89751 14.3451 9.9403 14.4638 10.0154 14.5508C10.0913 14.6387 10.1938 14.6873 10.3004 14.6873H10.7849C10.8923 14.6873 10.9948 14.6377 11.0699 14.5508C11.1458 14.4629 11.1878 14.3442 11.1878 14.2208V13.6598C11.1878 13.5355 11.145 13.4167 11.0699 13.3298C10.994 13.2419 10.8915 13.1933 10.7849 13.1933ZM13.3679 7.21163H12.8834C12.776 7.21163 12.6735 7.26118 12.5984 7.34813C12.5225 7.43602 12.4805 7.55475 12.4805 7.67816V8.23913C12.4805 8.36348 12.5233 8.48221 12.5984 8.56916C12.6743 8.65704 12.7768 8.70566 12.8834 8.70566H13.3679C13.4753 8.70566 13.5778 8.65611 13.6529 8.56916C13.7288 8.48128 13.7708 8.36254 13.7708 8.23913V7.67816C13.7708 7.55381 13.728 7.43508 13.6529 7.34813C13.577 7.26025 13.4745 7.21163 13.3679 7.21163ZM15.9509 10.2025H15.4664C15.359 10.2025 15.2565 10.252 15.1814 10.339C15.1055 10.4268 15.0635 10.5456 15.0635 10.669V11.2299C15.0635 11.3543 15.1063 11.473 15.1814 11.56C15.2573 11.6479 15.3598 11.6965 15.4664 11.6965H15.9509C16.0582 11.6965 16.1608 11.6469 16.2359 11.56C16.3118 11.4721 16.3538 11.3534 16.3538 11.2299V10.669C16.3538 10.5446 16.311 10.4259 16.2359 10.339C16.16 10.2511 16.0574 10.2025 15.9509 10.2025ZM13.3679 10.2025H12.8834C12.776 10.2025 12.6735 10.252 12.5984 10.339C12.5225 10.4268 12.4805 10.5456 12.4805 10.669V11.2299C12.4805 11.3543 12.5233 11.473 12.5984 11.56C12.6743 11.6479 12.7768 11.6965 12.8834 11.6965H13.3679C13.4753 11.6965 13.5778 11.6469 13.6529 11.56C13.7288 11.4721 13.7708 11.3534 13.7708 11.2299V10.669C13.7708 10.5446 13.728 10.4259 13.6529 10.339C13.577 10.2511 13.4745 10.2025 13.3679 10.2025ZM15.9509 3.49608H10.3004C10.0775 3.49608 9.89667 3.70551 9.89667 3.96354V5.24907C9.89667 5.50711 10.0775 5.71653 10.3004 5.71653H15.9509C16.1737 5.71653 16.3546 5.50711 16.3546 5.24907V3.96354C16.3546 3.70551 16.1737 3.49608 15.9509 3.49608ZM15.9509 7.21139H15.4664C15.359 7.21139 15.2565 7.26094 15.1814 7.34789C15.1055 7.43578 15.0635 7.55451 15.0635 7.67792V8.23889C15.0635 8.36324 15.1063 8.48197 15.1814 8.56892C15.2573 8.6568 15.3598 8.70542 15.4664 8.70542H15.9509C16.0582 8.70542 16.1608 8.65587 16.2359 8.56892C16.3118 8.48104 16.3538 8.3623 16.3538 8.23889V7.67792C16.3538 7.55358 16.311 7.43485 16.2359 7.34789C16.16 7.26001 16.0574 7.21139 15.9509 7.21139ZM10.7849 7.21139H10.3004C10.193 7.21139 10.0905 7.26094 10.0154 7.34789C9.9395 7.43578 9.89751 7.55451 9.89751 7.67792V8.23889C9.89751 8.36324 9.9403 8.48197 10.0154 8.56892C10.0913 8.6568 10.1938 8.70542 10.3004 8.70542H10.7849C10.8923 8.70542 10.9948 8.65587 11.0699 8.56892C11.1458 8.48104 11.1878 8.3623 11.1878 8.23889V7.67792C11.1878 7.55358 11.145 7.43485 11.0699 7.34789C10.994 7.26001 10.8915 7.21139 10.7849 7.21139ZM13.3679 13.193H12.8834C12.776 13.193 12.6735 13.2426 12.5984 13.3295C12.5225 13.4174 12.4805 13.5361 12.4805 13.6596V14.2205C12.4805 14.3449 12.5233 14.4636 12.5984 14.5506C12.6743 14.6384 12.7768 14.6871 12.8834 14.6871H13.3679C13.4753 14.6871 13.5778 14.6375 13.6529 14.5506C13.7288 14.4627 13.7708 14.3439 13.7708 14.2205V13.6596C13.7708 13.5352 13.728 13.4165 13.6529 13.3295C13.577 13.2416 13.4745 13.193 13.3679 13.193ZM10.7849 10.2022H10.3004C10.193 10.2022 10.0905 10.2518 10.0154 10.3387C9.9395 10.4266 9.89751 10.5453 9.89751 10.6687V11.2297C9.89751 11.3541 9.9403 11.4728 10.0154 11.5597C10.0913 11.6476 10.1938 11.6962 10.3004 11.6962H10.7849C10.8923 11.6962 10.9948 11.6467 11.0699 11.5597C11.1458 11.4719 11.1878 11.3531 11.1878 11.2297V10.6687C11.1878 10.5444 11.145 10.4257 11.0699 10.3387C10.994 10.2508 10.8915 10.2022 10.7849 10.2022ZM15.9509 13.193H15.4664C15.359 13.193 15.2565 13.2426 15.1814 13.3295C15.1055 13.4174 15.0635 13.5361 15.0635 13.6596V14.2205C15.0635 14.3449 15.1063 14.4636 15.1814 14.5506C15.2573 14.6384 15.3598 14.6871 15.4664 14.6871H15.9509C16.0582 14.6871 16.1608 14.6375 16.2359 14.5506C16.3118 14.4627 16.3538 14.3439 16.3538 14.2205V13.6596C16.3538 13.5352 16.311 13.4165 16.2359 13.3295C16.16 13.2416 16.0574 13.193 15.9509 13.193Z" fill="#508991"/>
<path fill-rule="evenodd" clip-rule="evenodd" d="M1.34188 16.5695H0.453692C0.346303 16.5695 0.243763 16.5199 0.168667 16.433C0.0927671 16.3451 0.0507812 16.2264 0.0507812 16.1029V2.08372C0.0507812 1.95937 0.0935753 1.84064 0.168667 1.75369C0.244567 1.6658 0.347111 1.61719 0.453692 1.61719H1.34188V16.5713V16.5695Z" fill="#508991"/>
<path fill-rule="evenodd" clip-rule="evenodd" d="M6.91073 0.117188C7.13357 0.117188 7.31444 0.326612 7.31444 0.584646V17.5947C7.31444 17.8527 7.13357 18.0621 6.91073 18.0621H2.55215C2.3293 18.0621 2.14844 17.8527 2.14844 17.5947V0.584646C2.14844 0.326612 2.3293 0.117188 2.55215 0.117188H6.91073Z" fill="#508991"/>
</g>
<defs>
<clipPath id="clip0_2538_1304">
<rect width="18.19" height="18.19" fill="white"/>
</clipPath>
</defs>
</svg>
