<svg width="38" height="38" viewBox="0 0 38 38" fill="none" xmlns="http://www.w3.org/2000/svg">
<g clip-path="url(#clip0_2538_1258)">
<path fill-rule="evenodd" clip-rule="evenodd" d="M30.5991 7.29608C30.9755 7.13768 31.3874 7.08305 31.792 7.13787C32.1966 7.1927 32.5792 7.35497 32.8998 7.60781C33.2204 7.86065 33.4675 8.1948 33.6151 8.57549C33.7628 8.95618 33.8057 9.3695 33.7394 9.77241L30.2854 30.7237C29.9503 32.7447 27.7329 33.9037 25.8795 32.897C24.3291 32.0548 22.0264 30.7572 19.9552 29.4033C18.9195 28.7256 15.7472 26.5554 16.1371 25.0111C16.4722 23.6907 21.8025 18.7289 24.8484 15.779C26.0439 14.62 25.4987 13.9514 24.0869 15.0175C20.5811 17.6644 14.9522 21.6896 13.0912 22.8226C11.4494 23.8217 10.5935 23.9923 9.57011 23.8217C7.70297 23.511 5.97136 23.0298 4.55806 22.4434C2.64827 21.6515 2.74117 19.0259 4.55654 18.2614L30.5991 7.29608Z" fill="black"/>
</g>
<defs>
<clipPath id="clip0_2538_1258">
<rect width="36.551" height="36.551" fill="white" transform="translate(0.476562 0.550781)"/>
</clipPath>
</defs>
</svg>
