<svg width="41" height="41" viewBox="0 0 41 41" fill="none" xmlns="http://www.w3.org/2000/svg">
<path d="M38.0229 10.6005C36.7329 11.1868 35.3424 11.5722 33.9017 11.7564C35.376 10.8685 36.5151 9.46133 37.0512 7.76933C35.6608 8.60696 34.1195 9.19329 32.4945 9.52834C31.1711 8.08763 29.3115 7.25 27.2007 7.25C23.2639 7.25 20.0474 10.4665 20.0474 14.4368C20.0474 15.0064 20.1144 15.5593 20.2317 16.0786C14.2678 15.777 8.95722 12.9124 5.42243 8.57345C4.80259 9.62886 4.45079 10.8685 4.45079 12.1752C4.45079 14.6714 5.70722 16.8827 7.65052 18.1391C6.46109 18.1391 5.35542 17.8041 4.38378 17.3015V17.3518C4.38378 20.8363 6.86315 23.7512 10.1466 24.4046C9.09264 24.6943 7.98563 24.7345 6.91341 24.5219C7.36842 25.95 8.25953 27.1996 9.46149 28.0951C10.6635 28.9905 12.1158 29.4868 13.6144 29.5141C11.0742 31.5253 7.92528 32.6123 4.68532 32.5966C4.11573 32.5966 3.54615 32.5631 2.97656 32.4961C6.15954 34.5399 9.94561 35.7293 13.9997 35.7293C27.2007 35.7293 34.4546 24.7732 34.4546 15.2745C34.4546 14.9562 34.4546 14.6546 34.4378 14.3363C35.845 13.3312 37.0512 12.058 38.0229 10.6005Z" fill="black"/>
</svg>
