<svg width="16" height="14" viewBox="0 0 16 14" fill="none" xmlns="http://www.w3.org/2000/svg">
<path d="M9.76837 6.11679C9.78927 6.15456 9.8006 6.1949 9.80176 6.23576L9.98441 6.30618C10.0056 6.28194 10.0291 6.25878 10.0528 6.23566C10.0914 6.19729 10.1333 6.16077 10.1781 6.12633L10.4285 5.92383C9.38918 5.48149 6.71837 4.33487 6.69639 4.325C6.66539 4.311 6.63099 4.3017 6.59517 4.29764C6.55935 4.29357 6.52282 4.29482 6.48764 4.30131C6.45247 4.30779 6.41935 4.3194 6.39018 4.33545C6.361 4.3515 6.33634 4.37169 6.31761 4.39486C6.29888 4.41804 6.28644 4.44374 6.281 4.47051C6.27556 4.49728 6.27722 4.52458 6.2859 4.55087C6.29459 4.57716 6.31011 4.60191 6.33159 4.62371C6.35307 4.64551 6.38008 4.66394 6.41109 4.67794C6.4343 4.68843 8.55713 5.59987 9.76837 6.11679Z" fill="#004346"/>
<path d="M0.134482 3.58269C0.393515 4.35812 1.09599 5.04457 1.96887 5.37586L3.45197 6.01332C3.61086 5.90623 3.79734 5.82452 3.99999 5.7732L2.2376 5.01567C2.23329 5.01376 2.22884 5.01195 2.22426 5.01024C1.48744 4.7325 0.89178 4.14723 0.669791 3.48273C0.617053 3.32898 0.579993 3.17246 0.55893 3.01453C0.461134 2.39442 1.30262 1.11646 2.28596 0.66397C2.52599 0.564435 2.78537 0.493549 3.0547 0.453879C3.45508 0.394696 3.86756 0.39857 4.26582 0.465254C4.27457 0.466865 4.28346 0.468173 4.29235 0.46918L8.01931 0.881613C8.11182 0.907346 8.18791 0.958244 8.23235 1.02412C8.27678 1.08999 8.28629 1.16597 8.25895 1.23686L8.1167 1.63147C8.10475 1.671 8.08242 1.70836 8.05099 1.74138C8.01957 1.7744 7.97968 1.80243 7.93364 1.82384C7.84893 1.86626 7.74522 1.88193 7.64511 1.86743C7.63999 1.86663 7.63487 1.86582 7.62962 1.86522L5.90912 1.65375C5.89584 1.61349 5.86657 1.57717 5.82516 1.54956C5.78375 1.52196 5.73213 1.50436 5.67709 1.49907C5.62205 1.49379 5.56616 1.50107 5.51676 1.51995C5.46736 1.53884 5.42675 1.56845 5.40028 1.6049C5.17118 1.91343 4.78798 2.14166 4.33442 2.2397C3.88085 2.33775 3.39379 2.29765 2.97967 2.12816C2.9154 2.10205 2.83988 2.09609 2.76973 2.11159C2.69958 2.12709 2.64054 2.16278 2.6056 2.21081C2.57066 2.25884 2.56268 2.31527 2.58342 2.3677C2.60416 2.42012 2.65192 2.46425 2.71619 2.49036C3.20047 2.68771 3.76241 2.75099 4.30301 2.66904C4.8436 2.58709 5.32813 2.36517 5.67123 2.0424L7.49012 2.26593L10.9711 3.77124C11.0634 3.81359 11.1326 3.87905 11.1665 3.95597C11.2003 4.0329 11.1965 4.1163 11.1557 4.19132L11.0523 4.32943C10.9987 4.39549 10.9127 4.44329 10.8127 4.46261C10.7002 4.49019 10.578 4.48479 10.4706 4.44751C10.4373 4.43409 10.4006 4.42597 10.3628 4.42367L7.96044 3.39374C7.897 3.36663 7.82176 3.35945 7.75124 3.37377C7.68072 3.38809 7.62069 3.42273 7.58432 3.4701C7.54796 3.51747 7.53823 3.57369 7.55728 3.62641C7.57633 3.67913 7.62259 3.72405 7.68592 3.7513L11.5165 5.39347C11.554 5.40977 11.5843 5.43398 11.6035 5.46309C11.8027 5.45341 12.0026 5.47341 12.1914 5.52194C12.182 5.4219 12.1401 5.32509 12.0692 5.23993C11.9983 5.15477 11.9007 5.08383 11.7848 5.03329L11.2 4.7826C11.3414 4.72234 11.4577 4.63407 11.5361 4.52754L11.6396 4.38933C11.7492 4.2186 11.769 4.02334 11.695 3.84222C11.6211 3.6611 11.4589 3.50733 11.2405 3.41135L8.29476 2.13742C8.47536 2.03771 8.60223 1.89298 8.65242 1.72942L8.7948 1.33471C8.9097 0.942614 8.61227 0.558169 8.13165 0.477736C8.12505 0.476729 8.11845 0.475723 8.11185 0.475018L4.38314 0.0623877C3.91127 -0.0160894 3.42274 -0.0205797 2.94843 0.0492004C2.61867 0.0979942 2.30128 0.185338 2.00793 0.308013C0.808264 0.859664 -0.107985 2.30805 0.0102857 3.05832C0.0339597 3.2352 0.0754764 3.41048 0.134482 3.58269Z" fill="#004346"/>
<path d="M10.9513 6.10871L10.5815 6.40799C10.408 6.53554 10.3045 6.70688 10.2913 6.88846L7.09283 5.65541C6.85796 5.56477 6.58615 5.54323 6.33107 5.59506C6.076 5.64689 5.8562 5.76832 5.71509 5.93536L5.61446 6.07378C5.52956 6.18914 5.48858 6.31968 5.49596 6.45123L4.85447 6.20162C4.43838 6.02979 3.86548 6.17565 3.59998 6.52396L3.4343 6.75137C3.4312 6.7557 3.4281 6.76023 3.42541 6.76475C3.18254 7.16521 3.33327 7.53153 3.83894 7.77001C3.85347 7.77687 3.96267 7.82033 4.13539 7.88831C4.05145 7.93082 3.98213 7.98756 3.9331 8.05389L3.73495 8.31593C3.59392 8.5098 3.56003 8.73721 3.64053 8.94952C3.66906 9.03493 3.72022 9.1152 3.791 9.18558C3.86178 9.25595 3.95073 9.315 4.05258 9.35923L4.52375 9.54181L4.33802 9.78977C4.26693 9.88351 4.22194 9.98703 4.20576 10.0941C4.18958 10.2012 4.20254 10.3096 4.24386 10.4128C4.27364 10.4849 4.32317 10.5516 4.38931 10.6086C4.45545 10.6657 4.53675 10.7118 4.62803 10.7441L10.0176 12.8354C10.5884 13.0756 11.2338 13.199 11.8888 13.1931C12.3257 13.1934 12.7599 13.1421 13.1753 13.041C13.4108 12.9845 13.6403 12.9148 13.8619 12.8327C14.8241 12.491 16.0238 11.0834 15.9996 9.97882C15.9782 9.72124 15.9026 9.46779 15.7758 9.22775C15.5901 8.87704 15.3088 8.55904 14.9498 8.29398L12.3458 6.07015C12.3415 6.06643 12.3369 6.0628 12.3321 6.05928C11.971 5.79262 11.3556 5.81145 10.9513 6.10871ZM11.9382 6.3482L14.5411 8.57111C14.5455 8.57483 14.5505 8.57876 14.5552 8.58228C14.8629 8.80825 15.104 9.07982 15.2628 9.37956C15.367 9.57635 15.4297 9.78406 15.4484 9.99524C15.4681 10.9072 14.4211 12.1776 13.6196 12.4623C13.4207 12.536 13.2147 12.5985 13.0033 12.6492C12.0826 12.875 11.0435 12.809 10.2915 12.4774C10.2872 12.4755 10.2829 12.4736 10.2784 12.4719L4.87629 10.3758C4.87171 10.374 4.86699 10.3723 4.86241 10.3707C4.8391 10.3626 4.81853 10.3507 4.80225 10.3359C4.78597 10.321 4.77439 10.3036 4.76839 10.285C4.7335 10.1863 4.75148 10.0813 4.8185 9.99242L5.01376 9.73169L7.63392 10.747C7.69828 10.7719 7.77318 10.777 7.84243 10.7609C7.91169 10.7449 7.96973 10.7092 8.00401 10.6615C8.03829 10.6137 8.04605 10.5578 8.02563 10.5059C8.0052 10.4539 7.95822 10.41 7.89484 10.3837L7.56913 10.2486C7.5444 10.2384 7.51774 10.231 7.49006 10.2268L4.31323 8.99582C4.24065 8.95871 4.18995 8.90216 4.17166 8.83787C4.13067 8.73147 4.14616 8.61735 4.2149 8.51926L4.41318 8.25712C4.44535 8.2181 4.48885 8.18498 4.54047 8.16021C4.59208 8.13544 4.65048 8.11966 4.71135 8.11403C6.01086 8.62202 8.30417 9.51294 8.32994 9.5225C8.39555 9.5467 8.47133 9.55044 8.54062 9.53288C8.60992 9.51532 8.66704 9.47791 8.69942 9.42888C8.73181 9.37985 8.7368 9.32321 8.71331 9.27143C8.68982 9.21965 8.63976 9.17696 8.57415 9.15276C8.54438 9.14168 4.30542 7.49478 4.1334 7.4213C3.85969 7.29224 3.79867 7.15292 3.92394 6.94152L4.08195 6.72458C4.19254 6.57942 4.43824 6.5006 4.59341 6.56493L9.17398 8.34732C9.23889 8.37258 9.31457 8.37753 9.38437 8.36109C9.45417 8.34464 9.51237 8.30815 9.54617 8.25964C9.57996 8.21113 9.58659 8.15457 9.56458 8.10241C9.54258 8.05025 9.49375 8.00676 9.42884 7.9815L6.26731 6.75136C6.16835 6.69947 6.09701 6.62321 6.06579 6.53594C6.03456 6.44867 6.04546 6.35597 6.09656 6.2741L6.19719 6.13569C6.26719 6.06289 6.36966 6.01114 6.48616 5.98976C6.60265 5.96837 6.72554 5.97874 6.83271 6.01902L10.5902 7.46765L11.7558 8.42846C11.805 8.46884 11.8737 8.49297 11.9466 8.49557C12.0196 8.49818 12.091 8.47903 12.1452 8.44235C12.1993 8.40566 12.2317 8.35442 12.2353 8.29988C12.239 8.24534 12.2135 8.19195 12.1645 8.15143L10.9655 7.16309C10.9622 7.16027 10.9587 7.15755 10.955 7.15493C10.9174 7.12564 10.8879 7.09109 10.8681 7.05326C10.8484 7.01543 10.8388 6.97507 10.84 6.93448C10.84 6.88968 10.8521 6.84535 10.8758 6.80418C10.8994 6.76301 10.9339 6.72586 10.9774 6.69499L11.3471 6.39571C11.4193 6.33335 11.5205 6.29378 11.6302 6.28496C11.7399 6.27614 11.8499 6.29874 11.9382 6.3482Z" fill="#004346"/>
</svg>
