<svg width="9" height="8" viewBox="0 0 9 8" fill="none" xmlns="http://www.w3.org/2000/svg">
<path d="M4.10534 6.51633L4.10473 6.51583C2.93726 5.57178 2.0032 4.81446 1.35626 4.10865C0.711703 3.40544 0.409091 2.81295 0.409091 2.20708C0.409091 1.2363 1.2691 0.409091 2.475 0.409091C3.15073 0.409091 3.79456 0.691653 4.20525 1.11836L4.5 1.42461L4.79475 1.11836C5.20544 0.691653 5.84927 0.409091 6.525 0.409091C7.7309 0.409091 8.59091 1.2363 8.59091 2.20708C8.59091 2.81295 8.2883 3.40544 7.64374 4.10865C6.9968 4.81446 6.06274 5.57178 4.89527 6.51583L4.89466 6.51633L4.5 6.83672L4.10534 6.51633Z" fill="#16909D" stroke="#D2E6F0" stroke-width="0.818182"/>
</svg>
