<svg width="136" height="13" viewBox="0 0 136 13" fill="none" xmlns="http://www.w3.org/2000/svg">
<path d="M121.493 7.03956C120.901 7.03956 120.441 6.57945 120.441 5.98788C120.441 5.35248 120.945 4.82664 121.58 4.82664H133.39C133.609 4.82664 133.784 5.00192 133.784 5.22102V5.90024C133.784 6.53563 133.258 7.03956 132.623 7.03956H121.493ZM134.858 2.43844H121.536C119.696 2.43844 118.206 3.92832 118.206 5.74687V6.31653C118.206 8.15698 119.696 9.64687 121.536 9.64687H134.858C135.493 9.64687 135.997 10.1508 135.997 10.7862V11.6626C135.997 11.8817 135.844 12.0351 135.625 12.0351H121.712C118.557 12.0351 115.993 9.47159 115.993 6.31653V5.76878C115.993 2.59181 118.557 0.0283203 121.712 0.0283203H135.625C135.844 0.0283203 135.997 0.203602 135.997 0.400793V1.2772C135.997 1.91259 135.493 2.43844 134.858 2.43844Z" fill="#004346"/>
<path d="M105.635 1.16765C105.635 0.532254 106.139 0.0283203 106.774 0.0283203H107.475C107.672 0.0283203 107.848 0.203602 107.848 0.400793V10.8957C107.848 11.5311 107.344 12.0351 106.708 12.0351H106.007C105.788 12.0351 105.635 11.8817 105.635 11.6626V1.16765Z" fill="#004346"/>
<path d="M83.5108 6.31653C83.5108 8.15698 85.0007 9.64687 86.8411 9.64687H97.9276C98.563 9.64687 99.0889 10.1508 99.0889 10.7862V11.6626C99.0889 11.8817 98.9136 12.0351 98.6945 12.0351H87.0164C83.8613 12.0351 81.2979 9.47159 81.2979 6.31653V0.400793C81.2979 0.203602 81.4512 0.0283203 81.6703 0.0283203H82.3715C83.0068 0.0283203 83.5108 0.532254 83.5108 1.16765V6.31653Z" fill="#004346"/>
<path d="M72.251 5.74687C72.8864 6.40417 73.2807 7.49968 73.2588 8.50754C73.2369 10.4795 71.5498 12.0351 69.5779 12.0351H53.6274C53.4083 12.0351 53.2549 11.8817 53.2549 11.6626V0.400793C53.2549 0.203602 53.4083 0.0283203 53.6274 0.0283203H69.4026C71.3088 0.0283203 72.9521 1.4963 73.0616 3.40248C73.1274 4.36653 72.7987 5.06765 72.251 5.74687ZM55.665 2.43844C55.5554 2.43844 55.4678 2.52608 55.4678 2.61372V4.65136C55.4678 4.76091 55.5554 4.82664 55.665 4.82664H69.6437C70.3229 4.82664 70.8706 4.27889 70.8487 3.59967C70.8268 2.94237 70.2571 2.43844 69.5998 2.43844H55.665ZM69.797 9.64687C70.4543 9.64687 71.024 9.14294 71.0459 8.48563C71.0678 7.80642 70.5201 7.03956 69.8409 7.03956H55.665C55.5554 7.03956 55.4678 7.1272 55.4678 7.23675V9.44968C55.4678 9.55923 55.5554 9.64687 55.665 9.64687H69.797Z" fill="#004346"/>
<path d="M26.7549 12.0351C26.5139 12.0351 26.3825 11.7722 26.5139 11.5969L34.4235 0.926636C34.8398 0.356972 35.6724 0.0283203 36.3735 0.0283203C37.0746 0.0283203 37.9291 0.356972 38.3454 0.926636L46.233 11.5969C46.3864 11.7722 46.2549 12.0351 46.0139 12.0351H44.546C44.0639 12.0351 43.6038 11.816 43.319 11.4216L36.5268 2.26315C36.4611 2.1536 36.3077 2.1536 36.2201 2.26315L29.4499 11.4216C29.1431 11.816 28.7049 12.0351 28.2229 12.0351H26.7549Z" fill="#004346"/>
<path d="M14.5159 0.0283203C17.6709 0.0283203 20.2344 2.59181 20.2344 5.76878V6.31653C20.2344 9.47159 17.6709 12.0351 14.5159 12.0351H0.602942C0.38384 12.0351 0.230469 11.8817 0.230469 11.6626V5.22102C0.230469 5.00192 0.38384 4.82664 0.602942 4.82664H1.30407C1.93946 4.82664 2.44339 5.35248 2.44339 5.98788V9.44968C2.44339 9.55923 2.53103 9.64687 2.64058 9.64687H14.6912C16.5316 9.64687 18.0215 8.15698 18.0215 6.31653V5.74687C18.0215 3.92832 16.5316 2.43844 14.6912 2.43844H1.3698C0.734402 2.43844 0.230469 1.91259 0.230469 1.2772V0.400793C0.230469 0.203602 0.38384 0.0283203 0.602942 0.0283203H14.5159Z" fill="#004346"/>
</svg>
