<svg width="133" height="6" viewBox="0 0 133 6" fill="none" xmlns="http://www.w3.org/2000/svg">
<path d="M129.243 0.318604L132.331 4.86496V0.318604H132.605V5.11145H132.16L129.072 0.558246V5.11145H128.798V0.318604H129.243Z" fill="#004346"/>
<path d="M113.898 0.976239C114.359 0.50152 114.925 0.26416 115.596 0.26416C116.253 0.26416 116.814 0.50152 117.28 0.976239C117.746 1.45096 117.978 2.03066 117.978 2.71536C117.978 3.39548 117.748 3.97291 117.287 4.44763C116.83 4.92235 116.267 5.15971 115.596 5.15971C114.916 5.15971 114.347 4.92235 113.891 4.44763C113.434 3.97291 113.206 3.39548 113.206 2.71536C113.206 2.03523 113.437 1.45552 113.898 0.976239ZM113.487 2.71536C113.487 3.31789 113.688 3.8314 114.089 4.25591C114.491 4.68042 114.993 4.89268 115.596 4.89268C116.194 4.89268 116.693 4.6827 117.095 4.26276C117.497 3.83825 117.698 3.32245 117.698 2.71536C117.698 2.11283 117.495 1.59931 117.088 1.1748C116.687 0.745726 116.189 0.53119 115.596 0.53119C114.998 0.53119 114.496 0.743444 114.089 1.16795C113.688 1.59246 113.487 2.10826 113.487 2.71536Z" fill="#004346"/>
<path d="M102.047 5.11145V0.318604H102.321V5.11145H102.047Z" fill="#004346"/>
<path d="M87.5029 0.318604H91.2687V0.578786H89.5502V5.11145H89.2694V0.578786H87.5029V0.318604Z" fill="#004346"/>
<path d="M73.1943 5.11145L75.2073 0.318604H75.6045L77.5901 5.11145H77.2888L76.7547 3.82423H74.0297L73.4887 5.11145H73.1943ZM76.652 3.56404L75.4059 0.537705L74.1255 3.56404H76.652Z" fill="#004346"/>
<path d="M59.0869 5.11145V0.318604H60.5248C61.2186 0.318604 61.7983 0.546834 62.2639 1.0033C62.734 1.45519 62.9691 2.02577 62.9691 2.71502C62.9691 3.40428 62.7363 3.97714 62.2707 4.4336C61.8051 4.8855 61.2232 5.11145 60.5248 5.11145H59.0869ZM59.3676 4.85126H60.5248C61.1501 4.85126 61.6659 4.64814 62.0722 4.24189C62.4784 3.83564 62.6815 3.32668 62.6815 2.71502C62.6815 2.0988 62.4761 1.58985 62.0653 1.18816C61.6591 0.781912 61.1456 0.578786 60.5248 0.578786H59.3676V4.85126Z" fill="#004346"/>
<path d="M44.7536 0.318604L47.8416 4.86496V0.318604H48.1155V5.11145H47.6704L44.5825 0.558246V5.11145H44.3086V0.318604H44.7536Z" fill="#004346"/>
<path d="M29.8032 0.318604V3.16007C29.8032 3.54807 29.8876 3.879 30.0565 4.15288C30.23 4.42219 30.4377 4.6139 30.6796 4.72802C30.9215 4.83757 31.1794 4.89234 31.4533 4.89234C31.7272 4.89234 31.9851 4.83757 32.227 4.72802C32.4689 4.6139 32.6743 4.42219 32.8432 4.15288C33.0167 3.879 33.1034 3.54807 33.1034 3.16007V0.318604H33.3841V3.16007C33.3841 3.49786 33.3293 3.79912 33.2198 4.06387C33.1102 4.32862 32.9619 4.53859 32.7747 4.69378C32.5922 4.84898 32.389 4.96538 32.1654 5.04298C31.9417 5.12514 31.7043 5.16622 31.4533 5.16622C31.2022 5.16622 30.9649 5.12742 30.7412 5.04982C30.5175 4.96766 30.3121 4.84898 30.125 4.69378C29.9424 4.53859 29.7963 4.32862 29.6868 4.06387C29.5772 3.79912 29.5225 3.49786 29.5225 3.16007V0.318604H29.8032Z" fill="#004346"/>
<path d="M14.712 0.976239C15.1731 0.50152 15.7391 0.26416 16.4101 0.26416C17.0674 0.26416 17.6288 0.50152 18.0944 0.976239C18.56 1.45096 18.7928 2.03066 18.7928 2.71536C18.7928 3.39548 18.5623 3.97291 18.1013 4.44763C17.6448 4.92235 17.0811 5.15971 16.4101 5.15971C15.73 5.15971 15.1617 4.92235 14.7052 4.44763C14.2487 3.97291 14.0205 3.39548 14.0205 2.71536C14.0205 2.03523 14.251 1.45552 14.712 0.976239ZM14.3012 2.71536C14.3012 3.31789 14.5021 3.8314 14.9038 4.25591C15.3054 4.68042 15.8076 4.89268 16.4101 4.89268C17.008 4.89268 17.5079 4.6827 17.9096 4.26276C18.3112 3.83825 18.5121 3.32245 18.5121 2.71536C18.5121 2.11283 18.309 1.59931 17.9027 1.1748C17.501 0.745726 17.0035 0.53119 16.4101 0.53119C15.8121 0.53119 15.31 0.743444 14.9038 1.16795C14.5021 1.59246 14.3012 2.10826 14.3012 2.71536Z" fill="#004346"/>
<path d="M3.48471 0.318604V0.578786H0.506299V2.58493H3.21083V2.84512H0.506299V5.11145H0.232422V0.318604H3.48471Z" fill="#004346"/>
</svg>
