<svg width="55" height="63" viewBox="0 0 55 63" fill="none" xmlns="http://www.w3.org/2000/svg">
<path d="M50.8592 31.4425C48.9848 36.1281 37.6564 34.7872 25.5565 28.4474C13.4566 22.1077 5.16725 13.1698 7.04165 8.48414C8.91605 3.79848 20.2444 5.13939 32.3443 11.4792C44.4442 17.8189 52.7336 26.7568 50.8592 31.4425Z" fill="#508991"/>
<path d="M50.8597 28.3423C52.896 32.9386 44.4786 42.5072 32.0587 49.7143C19.6389 56.9215 7.91979 59.038 5.88344 54.4417C3.84708 49.8454 12.2646 40.2768 24.6844 33.0697C37.1043 25.8625 48.8233 23.746 50.8597 28.3423Z" fill="#004346"/>
<path d="M9.86735 6.38101C15.1308 6.41475 19.3222 17.7263 19.2292 31.646C19.1361 45.5658 14.7938 56.8226 9.53033 56.7889C4.26687 56.7551 0.0754453 45.4436 0.168512 31.5239C0.261578 17.6041 4.6039 6.34728 9.86735 6.38101Z" fill="#172A3A"/>
</svg>
