<svg width="37" height="38" viewBox="0 0 37 38" fill="none" xmlns="http://www.w3.org/2000/svg">
<path d="M12.0656 3.59662H24.8584C29.7319 3.59662 33.6916 7.55631 33.6916 12.4298V25.2226C33.6916 27.5653 32.7609 29.8121 31.1044 31.4686C29.4479 33.1251 27.2011 34.0558 24.8584 34.0558H12.0656C7.19211 34.0558 3.23242 30.0961 3.23242 25.2226V12.4298C3.23242 10.0871 4.16306 7.84033 5.81959 6.18379C7.47613 4.52725 9.72288 3.59662 12.0656 3.59662ZM11.761 6.64253C10.3069 6.64253 8.91236 7.22017 7.88417 8.24836C6.85597 9.27656 6.27834 10.6711 6.27834 12.1252V25.5272C6.27834 28.5579 8.7303 31.0098 11.761 31.0098H25.163C26.6171 31.0098 28.0116 30.4322 29.0398 29.404C30.068 28.3758 30.6457 26.9813 30.6457 25.5272V12.1252C30.6457 9.09449 28.1937 6.64253 25.163 6.64253H11.761ZM26.4575 8.92697C26.9624 8.92697 27.4466 9.12754 27.8036 9.48455C28.1607 9.84156 28.3612 10.3258 28.3612 10.8307C28.3612 11.3356 28.1607 11.8198 27.8036 12.1768C27.4466 12.5338 26.9624 12.7344 26.4575 12.7344C25.9526 12.7344 25.4684 12.5338 25.1114 12.1768C24.7544 11.8198 24.5538 11.3356 24.5538 10.8307C24.5538 10.3258 24.7544 9.84156 25.1114 9.48455C25.4684 9.12754 25.9526 8.92697 26.4575 8.92697ZM18.462 11.2114C20.4816 11.2114 22.4184 12.0137 23.8465 13.4417C25.2745 14.8698 26.0768 16.8066 26.0768 18.8262C26.0768 20.8458 25.2745 22.7826 23.8465 24.2107C22.4184 25.6387 20.4816 26.441 18.462 26.441C16.4424 26.441 14.5056 25.6387 13.0775 24.2107C11.6495 22.7826 10.8472 20.8458 10.8472 18.8262C10.8472 16.8066 11.6495 14.8698 13.0775 13.4417C14.5056 12.0137 16.4424 11.2114 18.462 11.2114ZM18.462 14.2573C17.2503 14.2573 16.0881 14.7387 15.2313 15.5955C14.3745 16.4523 13.8931 17.6145 13.8931 18.8262C13.8931 20.0379 14.3745 21.2 15.2313 22.0569C16.0881 22.9137 17.2503 23.3951 18.462 23.3951C19.6737 23.3951 20.8358 22.9137 21.6927 22.0569C22.5495 21.2 23.0309 20.0379 23.0309 18.8262C23.0309 17.6145 22.5495 16.4523 21.6927 15.5955C20.8358 14.7387 19.6737 14.2573 18.462 14.2573Z" fill="black"/>
</svg>
