<svg width="37" height="38" viewBox="0 0 37 38" fill="none" xmlns="http://www.w3.org/2000/svg">
<path d="M10.836 8.16749C10.8356 8.97532 10.5143 9.7499 9.94277 10.3208C9.37126 10.8918 8.59636 11.2123 7.78853 11.2119C6.98071 11.2115 6.20613 10.8902 5.63519 10.3187C5.06426 9.74718 4.74374 8.97227 4.74414 8.16445C4.74454 7.35662 5.06584 6.58204 5.63735 6.01111C6.20885 5.44017 6.98375 5.11965 7.79158 5.12006C8.59941 5.12046 9.37399 5.44176 9.94492 6.01326C10.5159 6.58477 10.8364 7.35967 10.836 8.16749ZM10.9273 13.4674H4.83552V32.5348H10.9273V13.4674ZM20.5524 13.4674H14.4911V32.5348H20.4915V22.529C20.4915 16.955 27.756 16.4372 27.756 22.529V32.5348H33.7717V20.4578C33.7717 11.0611 23.0196 11.4114 20.4915 16.026L20.5524 13.4674Z" fill="black"/>
</svg>
