<svg width="38" height="38" viewBox="0 0 38 38" fill="none" xmlns="http://www.w3.org/2000/svg">
<g clip-path="url(#clip0_1476_5438)">
<path fill-rule="evenodd" clip-rule="evenodd" d="M30.602 7.29797C30.9784 7.13957 31.3903 7.08494 31.7949 7.13976C32.1996 7.19459 32.5821 7.35686 32.9027 7.6097C33.2234 7.86254 33.4704 8.19669 33.618 8.57738C33.7657 8.95808 33.8086 9.37139 33.7424 9.7743L30.2883 30.7256C29.9533 32.7466 27.7358 33.9056 25.8824 32.8989C24.332 32.0567 22.0293 30.7591 19.9581 29.4052C18.9225 28.7275 15.7502 26.5573 16.14 25.013C16.4751 23.6926 21.8054 18.7308 24.8513 15.7808C26.0469 14.6219 25.5016 13.9533 24.0899 15.0194C20.584 17.6663 14.9552 21.6914 13.0941 22.8245C11.4524 23.8236 10.5965 23.9942 9.57304 23.8236C7.7059 23.5129 5.97429 23.0316 4.56099 22.4453C2.6512 21.6534 2.7441 19.0278 4.55947 18.2633L30.602 7.29797Z" fill="black"/>
</g>
<defs>
<clipPath id="clip0_1476_5438">
<rect width="36.551" height="36.551" fill="white" transform="translate(0.477539 0.550964)"/>
</clipPath>
</defs>
</svg>
