<svg width="41" height="41" viewBox="0 0 41 41" fill="none" xmlns="http://www.w3.org/2000/svg">
<path d="M38.0199 10.6022C36.73 11.1886 35.3395 11.5739 33.8988 11.7581C35.373 10.8703 36.5122 9.46304 37.0483 7.77104C35.6578 8.60866 34.1166 9.195 32.4916 9.53005C31.1681 8.08934 29.3086 7.25171 27.1978 7.25171C23.2609 7.25171 20.0445 10.4682 20.0445 14.4385C20.0445 15.0081 20.1115 15.561 20.2287 16.0803C14.2648 15.7787 8.95429 12.9141 5.4195 8.57516C4.79966 9.63057 4.44786 10.8703 4.44786 12.177C4.44786 14.6731 5.7043 16.8844 7.64759 18.1409C6.45816 18.1409 5.35249 17.8058 4.38085 17.3032V17.3535C4.38085 20.838 6.86022 23.753 10.1437 24.4063C9.08971 24.696 7.9827 24.7362 6.91048 24.5236C7.36549 25.9517 8.25661 27.2013 9.45856 28.0968C10.6605 28.9922 12.1129 29.4885 13.6115 29.5158C11.0713 31.527 7.92235 32.614 4.68239 32.5983C4.1128 32.5983 3.54322 32.5648 2.97363 32.4978C6.15661 34.5416 9.94269 35.731 13.9968 35.731C27.1978 35.731 34.4516 24.7749 34.4516 15.2762C34.4516 14.9579 34.4516 14.6563 34.4349 14.338C35.8421 13.3329 37.0483 12.0597 38.0199 10.6022Z" fill="black"/>
</svg>
